<mxfile host="app.diagrams.net" modified="2024-04-26T05:59:19.145Z" agent="Mozilla/5.0 (Windows NT 10.0; Win64; x64) AppleWebKit/537.36 (KHTML, like Gecko) Chrome/124.0.0.0 Safari/537.36 Edg/124.0.0.0" etag="R6IBYTuSeiMheVm_Kzg5" version="24.3.0" type="github">
  <diagram id="C5RBs43oDa-KdzZeNtuy" name="Page-1">
    <mxGraphModel dx="880" dy="533" grid="1" gridSize="10" guides="1" tooltips="1" connect="1" arrows="1" fold="1" page="1" pageScale="1" pageWidth="827" pageHeight="1169" math="0" shadow="0">
      <root>
        <mxCell id="WIyWlLk6GJQsqaUBKTNV-0" />
        <mxCell id="WIyWlLk6GJQsqaUBKTNV-1" parent="WIyWlLk6GJQsqaUBKTNV-0" />
        <mxCell id="CjHiR7U8YY61FkQf2Ea5-4" value="yes" style="edgeStyle=orthogonalEdgeStyle;rounded=0;orthogonalLoop=1;jettySize=auto;html=1;verticalAlign=middle;" edge="1" parent="WIyWlLk6GJQsqaUBKTNV-1" source="CjHiR7U8YY61FkQf2Ea5-0" target="CjHiR7U8YY61FkQf2Ea5-3">
          <mxGeometry relative="1" as="geometry" />
        </mxCell>
        <mxCell id="CjHiR7U8YY61FkQf2Ea5-6" value="" style="edgeStyle=orthogonalEdgeStyle;rounded=0;orthogonalLoop=1;jettySize=auto;html=1;entryX=0.5;entryY=0;entryDx=0;entryDy=0;" edge="1" parent="WIyWlLk6GJQsqaUBKTNV-1" source="CjHiR7U8YY61FkQf2Ea5-0" target="CjHiR7U8YY61FkQf2Ea5-9">
          <mxGeometry relative="1" as="geometry">
            <mxPoint x="414" y="240" as="targetPoint" />
          </mxGeometry>
        </mxCell>
        <mxCell id="CjHiR7U8YY61FkQf2Ea5-8" value="" style="edgeStyle=orthogonalEdgeStyle;rounded=0;orthogonalLoop=1;jettySize=auto;html=1;" edge="1" parent="WIyWlLk6GJQsqaUBKTNV-1" source="CjHiR7U8YY61FkQf2Ea5-0" target="CjHiR7U8YY61FkQf2Ea5-7">
          <mxGeometry relative="1" as="geometry" />
        </mxCell>
        <mxCell id="CjHiR7U8YY61FkQf2Ea5-0" value="" style="rhombus;whiteSpace=wrap;html=1;" vertex="1" parent="WIyWlLk6GJQsqaUBKTNV-1">
          <mxGeometry x="190" y="130" width="100" height="100" as="geometry" />
        </mxCell>
        <mxCell id="CjHiR7U8YY61FkQf2Ea5-3" value="" style="rhombus;whiteSpace=wrap;html=1;" vertex="1" parent="WIyWlLk6GJQsqaUBKTNV-1">
          <mxGeometry x="190" y="310" width="100" height="100" as="geometry" />
        </mxCell>
        <mxCell id="CjHiR7U8YY61FkQf2Ea5-7" value="" style="rounded=1;whiteSpace=wrap;html=1;" vertex="1" parent="WIyWlLk6GJQsqaUBKTNV-1">
          <mxGeometry x="10" y="240" width="120" height="60" as="geometry" />
        </mxCell>
        <mxCell id="CjHiR7U8YY61FkQf2Ea5-9" value="" style="rhombus;whiteSpace=wrap;html=1;" vertex="1" parent="WIyWlLk6GJQsqaUBKTNV-1">
          <mxGeometry x="361" y="240" width="106" height="100" as="geometry" />
        </mxCell>
      </root>
    </mxGraphModel>
  </diagram>
</mxfile>
